<svg width="40" height="40" viewBox="0 0 40 40" fill="none" xmlns="http://www.w3.org/2000/svg">
<g id="admin_panel_settings">
<mask id="mask0_178_18176" style="mask-type:alpha" maskUnits="userSpaceOnUse" x="0" y="0" width="40" height="40">
<rect id="Bounding box" width="40" height="40" fill="#D9D9D9"/>
</mask>
<g mask="url(#mask0_178_18176)">
<path id="admin_panel_settings_2" d="M20.0001 3.58398C20.2223 3.58398 20.4237 3.59787 20.6042 3.62565C20.7848 3.65343 20.9723 3.70898 21.1667 3.79232L31.1667 7.54232C31.8056 7.79232 32.3265 8.1951 32.7292 8.75065C33.132 9.30621 33.3334 9.93121 33.3334 10.6257V15.834C33.3334 16.3062 33.1737 16.702 32.8542 17.0215C32.5348 17.3409 32.139 17.5007 31.6667 17.5007C31.1945 17.5007 30.7987 17.3409 30.4792 17.0215C30.1598 16.702 30.0001 16.3062 30.0001 15.834V10.6673L20.0001 6.91732L10.0001 10.6673V18.5007C10.0001 19.8895 10.2015 21.2784 10.6042 22.6673C11.007 24.0562 11.5626 25.3757 12.2709 26.6257C12.9792 27.8757 13.8404 29.0007 14.8542 30.0007C15.8681 31.0007 16.9723 31.8201 18.1667 32.459C18.5834 32.6812 18.882 33.0007 19.0626 33.4173C19.2431 33.834 19.2501 34.2507 19.0834 34.6673C18.889 35.1118 18.5765 35.4173 18.1459 35.584C17.7154 35.7507 17.2917 35.7229 16.8751 35.5007C13.7362 33.9451 11.2501 31.5979 9.41675 28.459C7.58341 25.3201 6.66675 22.0007 6.66675 18.5007V10.6257C6.66675 9.93121 6.86814 9.30621 7.27091 8.75065C7.67369 8.1951 8.19453 7.79232 8.83341 7.54232L18.8334 3.79232C19.0279 3.70898 19.2223 3.65343 19.4167 3.62565C19.6112 3.59787 19.8056 3.58398 20.0001 3.58398ZM28.3334 36.6673C26.0279 36.6673 24.0626 35.8548 22.4376 34.2298C20.8126 32.6048 20.0001 30.6395 20.0001 28.334C20.0001 26.0284 20.8126 24.0632 22.4376 22.4382C24.0626 20.8132 26.0279 20.0007 28.3334 20.0007C30.639 20.0007 32.6042 20.8132 34.2292 22.4382C35.8542 24.0632 36.6667 26.0284 36.6667 28.334C36.6667 30.6395 35.8542 32.6048 34.2292 34.2298C32.6042 35.8548 30.639 36.6673 28.3334 36.6673ZM28.3334 28.334C29.0279 28.334 29.6181 28.0909 30.1042 27.6048C30.5904 27.1187 30.8334 26.5284 30.8334 25.834C30.8334 25.1395 30.5904 24.5493 30.1042 24.0632C29.6181 23.577 29.0279 23.334 28.3334 23.334C27.639 23.334 27.0487 23.577 26.5626 24.0632C26.0765 24.5493 25.8334 25.1395 25.8334 25.834C25.8334 26.5284 26.0765 27.1187 26.5626 27.6048C27.0487 28.0909 27.639 28.334 28.3334 28.334ZM28.3334 33.334C29.0279 33.334 29.6806 33.202 30.2917 32.9382C30.9029 32.6743 31.4445 32.2923 31.9167 31.7923C32.0556 31.6257 32.1112 31.4382 32.0834 31.2298C32.0556 31.0215 31.9306 30.8618 31.7084 30.7507C31.1806 30.5007 30.632 30.3132 30.0626 30.1882C29.4931 30.0632 28.9167 30.0007 28.3334 30.0007C27.7501 30.0007 27.1737 30.0632 26.6042 30.1882C26.0348 30.3132 25.4862 30.5007 24.9584 30.7507C24.7362 30.8618 24.6112 31.0215 24.5834 31.2298C24.5556 31.4382 24.6112 31.6257 24.7501 31.7923C25.2223 32.2923 25.764 32.6743 26.3751 32.9382C26.9862 33.202 27.639 33.334 28.3334 33.334Z" fill="#EF6923"/>
</g>
</g>
</svg>
